PathFileType	4	(X/Y/Z)	C:/Users/beibeiliu/ov580/test_trc/User2\sequence.34_training_dense_right.trc
DataRate	CameraRate	NumFrames	NumMarkers	Units	OrigDataRate	OrigDataStartFrame	OrigNumFrames
120	120	14	19	mm	120	82	326
Frame#	Time	ThumbCMC			ThumbMCP			ThumbIP			ThumbTip			IndexMCP			IndexPIP			IndexTip			MiddleMCP			MiddlePIP			MiddleTip			RingMCP			RingPIP			RingTip			PinkyMCP			PinkyPIP			PinkyTip			BackHand1			BackHand2			BackHand3	
		X0	Y0	Z0	X1	Y1	Z1	X2	Y2	Z2	X3	Y3	Z3	X4	Y4	Z4	X5	Y5	Z5	X6	Y6	Z6	X7	Y7	Z7	X8	Y8	Z8	X9	Y9	Z9	X10	Y10	Z10	X11	Y11	Z11	X12	Y12	Z12	X13	Y13	Z13	X14	Y14	Z14	X15	Y15	Z15	X16	Y16	Z16	X17	Y17	Z17	X18	Y18	Z18	
81	0.675	86.0969	17.2195	73.4959	65.3058	28.6749	48.8816	44.1037	26.541	21.1699	28.364	12.4596	5.39856	50.0828	-8.0052	1.80018	21.2364	-6.0287	15.6958	37.9035	2.97769	48.1288	41.3259	-32.2518	8.75679	16.4743	-25.2083	34.0218	40.5836	-12.0806	60.9041	35.9985	-48.457	23.5856	18.1586	-33.837	46.7756	47.424	-28.7834	69.0921	36.9407	-61.0476	38.4114	23.3463	-45.2442	63.9589	50.8196	-35.5128	79.2225	97.841	-48.9588	51.5411	114.502	-47.7828	80.5847	107.749	-16.0111	58.9216	
82	0.683333	89.0115	20.0915	70.7184	70.5931	29.5515	46.2072	50.1871	24.3682	17.6427	33.5696	13.9551	0.266882	50.5195	-11.0271	2.41722	23.4066	-6.4193	14.0084	37.8165	0.639514	45.0561	45.4074	-28.6748	8.38817	17.2061	-20.0588	26.5909	44.1996	-10.9188	61.1693	35.921	-45.3312	22.6545	20.0767	-31.4722	46.142	45.5007	-25.6289	66.6351	40.3038	-60.1034	36.9089	23.5239	-43.6051	62.6389	49.5728	-33.8877	77.7578	96.5017	-51.0798	46.9193	114.693	-45.6871	76.5904	107.743	-14.2266	55.8616	
83	0.691667	92.2838	16.8728	73.1026	75.6787	31.6423	44.1934	56.7549	28.2975	17.1643	39.766	16.4499	-2.07473	55.2089	-9.76713	2.62179	24.234	-2.4988	15.9741	42.8693	6.76395	46.1396	47.782	-29.881	8.11336	18.9879	-20.8739	27.7148	42.1286	-10.4711	59.6377	41.3263	-43.1793	21.9586	19.8884	-34.2009	42.9748	48.9212	-21.7022	65.7578	37.8639	-57.1768	37.1581	26.0365	-39.032	61.4566	50.604	-32.4118	76.971	98.8176	-52.3268	48.7742	115.405	-48.0611	82.1396	111.86	-14.8421	56.5304	
84	0.7	94.8873	17.273	73.6076	81.3459	29.3333	45.8843	61.4488	28.7996	14.3705	45.2758	16.5911	0.44442	55.1526	-3.93938	0.905913	26.9318	-3.44948	17.2774	45.7641	5.0901	46.7381	50.2264	-26.1528	8.92806	19.4333	-18.1652	30.6784	45.4907	-11.8561	61.7729	38.9126	-40.9289	20.9638	19.7948	-35.0833	45.5661	48.3516	-21.3658	64.6101	43.4316	-59.8267	36.731	23.4458	-42.9109	60.7233	49.9861	-31.8555	75.3185	99.2715	-46.9565	46.4923	115.802	-46.7971	78.9169	111.148	-15.8364	56.7673	
85	0.708333	96.7374	16.9116	72.2487	85.0475	32.0268	46.0041	65.8771	27.3711	16.4366	48.625	18.0584	-1.81783	58.2549	-5.63905	3.86409	27.6089	-2.09676	16.2099	47.4336	5.45932	47.7464	47.5762	-24.5132	7.20073	20.6515	-20.446	27.2387	47.1189	-9.48776	60.9443	38.9354	-45.3305	23.1916	21.2041	-31.4712	42.0472	49.699	-25.2494	67.0244	40.2086	-57.2585	37.4036	24.2782	-41.2943	59.6563	53.7556	-31.6858	75.0149	100.602	-47.4722	50.9086	115.841	-46.0324	83.8955	113.95	-15.9849	61.6319	
86	0.716667	98.5701	18.5777	71.933	87.3296	35.1895	46.8342	68.4976	31.5254	12.9955	50.3067	18.5484	-1.66123	56.4353	-6.26658	2.38407	29.611	-2.82167	14.5419	50.0996	3.39237	48.6019	50.3	-28.0417	7.5809	20.9392	-19.369	28.7618	48.2531	-8.23782	58.4537	38.1133	-44.7315	22.588	22.5385	-29.0299	43.6397	52.5096	-20.8632	63.2386	41.9864	-57.1786	37.6473	25.4806	-37.6959	58.4022	50.4063	-29.8213	75.7937	98.9236	-49.0179	50.1108	118.144	-47.6253	81.8134	114.545	-15.4515	57.664	
87	0.725	99.5239	18.1003	74.7798	88.5421	32.3805	43.8887	68.8148	32.8021	12.9069	50.6458	13.3833	-1.17653	56.843	-8.44951	3.26861	29.293	-3.03974	15.0765	45.3984	7.6002	46.6055	48.3315	-26.9138	6.94343	22.123	-16.6206	26.546	45.269	-10.8095	58.8343	39.6578	-43.731	21.6234	21.8483	-31.9748	44.4845	49.9976	-22.121	63.7921	40.527	-59.6913	38.7057	25.6585	-39.1626	58.4185	52.4686	-32.7058	77.8136	101.11	-51.4341	51.9179	115.166	-46.7033	81.1103	114.199	-15.5658	61.3813	
88	0.733333	99.9182	19.0148	76.1189	88.6735	37.1148	45.7678	68.866	33.4063	17.7686	50.104	13.623	5.14325	57.1073	-8.26745	5.00801	27.4903	-3.57219	19.6352	48.4864	7.28941	47.9639	47.5069	-30.1369	8.51288	20.6149	-19.9358	27.0472	45.2065	-8.22389	59.5777	38.727	-40.36	22.1612	22.1833	-28.85	45.2766	52.9129	-24.6425	66.4998	42.1365	-57.3625	37.7941	24.4039	-38.7764	61.276	53.9976	-31.1006	78.1373	97.8077	-47.7966	48.9152	115.676	-44.5164	78.9479	114.391	-13.8808	58.8366	
89	0.741667	98.6665	18.3216	71.7879	86.4586	36.2909	48.4534	65.3586	35.4002	17.4687	47.0684	17.6122	8.41686	55.9095	-5.22471	5.83767	27.3444	1.2771	16.7345	47.0117	3.91679	51.0481	48.5355	-27.9796	10.376	19.8663	-16.2982	30.125	46.2096	-7.1946	59.7679	37.7845	-40.3463	22.97	20.704	-31.8425	45.0814	49.5786	-20.9184	65.2144	39.113	-58.7211	39.9662	23.7175	-38.6242	59.1921	48.6111	-30.4606	79.2681	98.8	-50.3214	52.5125	114.688	-47.7364	80.2994	114.079	-12.396	56.224	
90	0.75	97.9532	21.2236	74.8328	82.8529	38.0446	47.3823	60.1989	36.0595	18.0183	40.5391	18.3538	6.56587	53.6457	-1.49215	4.2659	26.2602	-1.50006	18.4456	42.3164	7.03948	49.6463	48.8049	-26.631	10.6601	19.1733	-15.5113	30.1523	41.2997	-8.73658	61.9257	38.9253	-42.9684	24.4048	21.1129	-28.4675	48.5329	51.48	-23.0586	67.1026	40.5968	-56.6685	40.0644	23.0403	-40.1939	63.6886	48.301	-31.2917	78.2712	97.3867	-46.6209	48.4767	117.164	-42.3161	82.8233	114.169	-10.352	56.4986	
91	0.758333	94.9488	19.248	75.4261	77.6766	39.1513	49.375	54.4339	38.6698	27.8586	35.0141	23.1219	10.0317	52.2912	-2.89611	6.80917	23.3708	2.89561	22.1089	41.5157	8.27074	51.3623	45.3413	-23.2161	11.4607	17.2123	-14.1867	35.2699	42.4444	-7.38673	64.0251	36.3215	-38.8232	24.2856	19.0912	-29.405	51.3862	47.8508	-20.4811	67.6654	38.873	-57.9614	40.7826	23.879	-37.672	64.8214	48.7293	-30.8544	79.4312	97.2364	-46.2262	47.4086	116.668	-44.0747	80.4691	112.95	-8.96996	59.8583	
92	0.766667	92.1224	22.1074	74.6814	72.4058	36.1494	55.1304	48.3018	40.9738	29.7178	30.9363	22.0253	16.2507	50.5054	2.0698	7.78087	20.6436	4.877	23.1433	39.2598	8.31121	53.4746	43.6646	-20.7213	11.7607	16.0896	-11.4214	34.9269	39.1834	-10.218	65.8398	35.5137	-35.9791	25.4818	16.2386	-29.3131	47.9582	49.4123	-22.107	71.3945	34.5401	-54.0835	40.4029	21.6368	-37.3676	62.3069	50.2826	-28.9881	80.436	96.7727	-45.1687	48.6047	116.474	-44.3447	81.1064	110.018	-8.19291	60.4445	
93	0.775	90.4101	22.3554	76.2276	67.5181	40.0025	57.5818	42.4002	38.2488	29.204	22.7788	26.1888	14.7848	49.7139	2.46943	8.84631	19.3634	6.96744	21.4413	38.1734	8.27174	55.172	44.2815	-17.5249	12.2165	13.9998	-14.07	38.1515	40.1257	-5.64463	66.4355	33.3026	-35.6896	26.6603	16.1006	-27.7807	48.6481	42.1816	-17.1995	70.4888	35.6669	-52.2185	41.3297	20.6863	-37.1744	65.8861	49.988	-29.3962	81.2135	94.6608	-45.9282	47.438	115.464	-38.8735	81.8032	110.039	-7.18689	56.4243	
94	0.783333	89.0376	22.6856	80.455	65.1492	40.8811	61.2019	37.9737	40.3855	32.2129	19.326	22.9338	17.6118	47.8722	1.67758	9.95719	18.8487	5.48667	25.0144	35.193	13.4518	55.1613	41.5228	-17.2389	12.8935	14.1257	-11.1796	38.54	40.6868	-4.62599	68.0434	32.1459	-35.7919	26.4894	15.8324	-27.8275	50.7462	42.9705	-19.6614	73.7148	38.6412	-49.2185	40.7556	22.0227	-33.4268	64.5829	52.5267	-27.3184	81.6354	93.3902	-43.9608	48.702	112.112	-41.2769	76.9731	111.741	-4.40001	60.2925	
